# xmcd
#
# Track frame offsets:
#	182
#	15300
#	31110
#	49945
#	61600
#	75325
#	91417
#	109055
#	124020
#	135080
#	147467
#	164395
#
# Disc length: 2352 seconds
#
# Revision: 0
# Processed by: cddbd v1.4PL0 Copyright (c) Steve Scherf et al.
# Submitted via: EasyCDDAExtractor 4.5.0.2
#
DISCID=88092e0c
DTITLE=Spencer Bohren - Snap Your Fingers
DYEAR=1986
DGENRE=Blues
TTITLE0=Born In A Biscayne
TTITLE1=Drop Down Mama
TTITLE2=Shoppin' For Clothes
TTITLE3=Darkness
TTITLE4=Stone Pony Blues
TTITLE5=In-between Friends
TTITLE6=Straight Eight
TTITLE7=Come Back, Corinna
TTITLE8=Blues On The Ceiling
TTITLE9=Midnight Delta
TTITLE10=Down In Mississippi
TTITLE11=Snap Your Fingers
EXTD=
EXTT0=
EXTT1=
EXTT2=
EXTT3=
EXTT4=
EXTT5=
EXTT6=
EXTT7=
EXTT8=
EXTT9=
EXTT10=
EXTT11=
PLAYORDER=
